<svg width="153px" height="153px" viewBox="0 0 512 512" xmlns="http://www.w3.org/2000/svg" fill="#000000"><g id="SVGRepo_bgCarrier" stroke-width="0"></g><g id="SVGRepo_tracerCarrier" stroke-linecap="round" stroke-linejoin="round"></g><g id="SVGRepo_iconCarrier"> <path fill="var(--ci-primary-color, #cccc)" d="M136,488H495.985V24H16V488H136ZM408,56h55.985V96H408Zm0,72h55.985v40H408Zm0,72h55.985v40H408Zm0,72h55.985v40H408Zm0,72h55.985v40H408Zm0,72h55.985v40H408ZM136,200V56H375.985V240H136Zm0,216V272H375.985V456H136ZM48,56h56V96H48Zm0,72h56v40H48Zm0,72h56v40H48Zm0,72h56v40H48Zm0,72h56v40H48Zm0,72h56v40H48Z" class="ci-primary"></path> </g></svg>